<?xml version="1.0" encoding="UTF-8"?>
<svg xmlns="http://www.w3.org/2000/svg" xmlns:xlink="http://www.w3.org/1999/xlink" width="17px" height="23px" viewBox="0 0 17 23" version="1.1">
<g id="surface1">
<path style="fill-rule:nonzero;fill:rgb(100%,41.568628%,16.470589%);fill-opacity:1;stroke-width:2;stroke-linecap:butt;stroke-linejoin:round;stroke:rgb(80.000001%,78.823531%,86.274511%);stroke-opacity:1;stroke-miterlimit:4;" d="M 10.003672 10.997279 L 10.003672 8.991845 C 10.003672 8.11141 10.58823 7.349182 11.437495 7.129074 L 11.492642 7.129074 C 12.08823 6.96603 12.727935 7.096465 13.218744 7.471465 C 13.709552 7.846465 13.996317 8.429345 13.996317 9.052986 L 13.996317 11.999996 L 13.996317 10.002714 C 13.996317 9.118203 14.602934 8.347823 15.463228 8.131791 L 15.507346 8.131791 C 16.108448 7.968747 16.748154 8.099182 17.233448 8.478258 C 17.718742 8.853258 18.005506 9.44429 17.999991 10.059779 L 17.999991 13.002713 L 17.999991 11.05842 C 17.999991 10.141301 18.623153 9.346464 19.51102 9.118203 C 20.112123 8.971464 20.740799 9.101899 21.226093 9.480975 C 21.716901 9.860051 22.003666 10.442931 22.003666 11.05842 L 22.003666 13.997278 C 22.003666 14.600538 21.920945 15.269016 21.788593 15.970103 C 21.099255 19.630428 17.966903 22.320644 14.238964 22.447003 C 12.749994 22.51222 11.249995 22.51222 9.761025 22.447003 C 6.033085 22.320644 2.900734 19.630428 2.211396 15.970103 C 2.079043 15.269016 1.996323 14.592386 1.996323 13.997278 L 1.996323 12.509507 C 1.996323 11.400811 2.900734 10.499996 4.009189 10.499996 C 4.54963 10.49592 5.062498 10.707877 5.443012 11.091029 C 5.818012 11.474181 6.027571 11.991844 6.016541 12.529887 L 6.011027 13.499995 L 6.011027 3.497281 C 6.011027 2.400814 6.909923 1.499999 8.007349 1.499999 C 9.115804 1.499999 10.009186 2.396738 10.009186 3.497281 L 10.009186 10.997279 Z M 10.003672 10.997279 " transform="matrix(0.708334,0,0,0.958334,0,0)"/>
</g>
</svg>
