<?xml version="1.0" encoding="UTF-8"?>
<svg xmlns="http://www.w3.org/2000/svg" xmlns:xlink="http://www.w3.org/1999/xlink" width="24px" height="16px" viewBox="0 0 24 16" version="1.1">
<defs>
<filter id="alpha" filterUnits="objectBoundingBox" x="0%" y="0%" width="100%" height="100%">
  <feColorMatrix type="matrix" in="SourceGraphic" values="0 0 0 0 1 0 0 0 0 1 0 0 0 0 1 0 0 0 1 0"/>
</filter>
<mask id="mask0">
  <g filter="url(#alpha)">
<rect x="0" y="0" width="24" height="16" style="fill:rgb(0%,0%,0%);fill-opacity:0.929412;stroke:none;"/>
  </g>
</mask>
<clipPath id="clip1">
  <rect x="0" y="0" width="24" height="16"/>
</clipPath>
<g id="surface5" clip-path="url(#clip1)">
<path style=" stroke:none;fill-rule:evenodd;fill:rgb(100%,41.176471%,16.078432%);fill-opacity:1;" d="M 7.5 -0.332031 C 10.167969 -0.332031 12.832031 -0.332031 15.5 -0.332031 C 14.789062 0.269531 13.789062 0.492188 12.5 0.332031 C 12.5 5.222656 12.5 10.109375 12.5 15 C 13.789062 14.84375 14.789062 15.0625 15.5 15.667969 C 12.832031 15.667969 10.167969 15.667969 7.5 15.667969 C 8.207031 15.0625 9.207031 14.84375 10.5 15 C 10.5 10.109375 10.5 5.222656 10.5 0.332031 C 9.207031 0.492188 8.207031 0.269531 7.5 -0.332031 Z M 7.5 -0.332031 "/>
</g>
</defs>
<g id="surface1">
<use xlink:href="#surface5" mask="url(#mask0)"/>
</g>
</svg>
